<svg width="80" height="80" viewBox="0 0 80 80" fill="none" xmlns="http://www.w3.org/2000/svg">
<circle cx="40" cy="40" r="40" fill="#11161E"/>
<path d="M42.7524 13.4961C45.6964 13.4961 48.3204 13.8801 50.6244 14.6481C52.9284 15.3734 54.8484 16.4401 56.3844 17.8481C57.9631 19.2134 59.1577 20.8774 59.9684 22.8401C60.7791 24.7601 61.1844 26.9361 61.1844 29.3681C61.1844 31.2881 60.8857 33.2081 60.2884 35.1281C59.7337 37.0481 58.7951 38.7974 57.4724 40.3761C56.1924 41.9548 54.4857 43.2348 52.3524 44.2161C50.2191 45.1548 47.5737 45.6241 44.4164 45.6241H37.7604V60.6001H28.4804V13.4961H42.7524ZM44.3524 36.6641C45.7604 36.6641 46.9337 36.4294 47.8724 35.9601C48.8111 35.4908 49.5364 34.8934 50.0484 34.1681C50.6031 33.4428 50.9871 32.6961 51.2004 31.9281C51.4564 31.1174 51.5844 30.3708 51.5844 29.6881C51.5844 29.1761 51.4991 28.5361 51.3284 27.7681C51.2004 26.9574 50.9017 26.1468 50.4324 25.3361C49.9631 24.5254 49.2377 23.8428 48.2564 23.2881C47.3177 22.7334 46.0377 22.4561 44.4164 22.4561H37.7604V36.6641H44.3524ZM53.0564 42.4241L64.7044 60.6001H53.8884L41.9844 42.6801L53.0564 42.4241Z" fill="white"/>
</svg>
